<svg xmlns="http://www.w3.org/2000/svg" width="1215" height="351" viewBox="0 0 1215 351" fill="none">
<mask id="mask0" mask-type="alpha" maskUnits="userSpaceOnUse" x="0" y="0" width="1215" height="351">
<path d="M22.98 160H37.5112V113.125H63.7612C64.8159 113.125 65.812 113.125 66.8081 113.066L92.1206 160H108.996L81.8667 110.43C97.1597 105.215 104.308 92.7344 104.308 76.7969C104.308 55.5859 91.6519 40 63.5269 40H22.98V160ZM37.5112 100V52.8906H63.0581C82.5112 52.8906 90.0112 62.3828 90.0112 76.7969C90.0112 91.2109 82.5112 100 63.2925 100H37.5112ZM128.522 160H201.881V147.109H143.053V106.328H197.194V93.4375H143.053V52.8906H200.944V40H128.522V160ZM232.057 160L244.127 126.016H292.643L304.713 160H319.948L275.885 40H260.885L216.823 160H232.057ZM248.698 113.125L267.917 58.9844H268.854L288.073 113.125H248.698ZM429.562 77.5C425.109 52.8906 405.421 38.3594 381.281 38.3594C350.578 38.3594 328.312 62.0312 328.312 100C328.312 137.969 350.578 161.641 381.281 161.641C405.421 161.641 425.109 147.109 429.562 122.5H415.031C411.515 139.141 397.218 148.047 381.281 148.047C359.484 148.047 342.375 131.172 342.375 100C342.375 68.8281 359.484 51.9531 381.281 51.9531C397.218 51.9531 411.515 60.8594 415.031 77.5H429.562ZM446.481 52.8906H484.215V160H498.747V52.8906H536.481V40H446.481V52.8906ZM651.72 160H666.251V106.328H730.236V160H744.767V40H730.236V93.4375H666.251V40H651.72V160ZM875.109 100C875.109 62.0312 852.843 38.3594 822.14 38.3594C791.437 38.3594 769.171 62.0312 769.171 100C769.171 137.969 791.437 161.641 822.14 161.641C852.843 161.641 875.109 137.969 875.109 100ZM861.046 100C861.046 131.172 843.937 148.047 822.14 148.047C800.343 148.047 783.234 131.172 783.234 100C783.234 68.8281 800.343 51.9531 822.14 51.9531C843.937 51.9531 861.046 68.8281 861.046 100ZM1000.79 100C1000.79 62.0312 978.527 38.3594 947.824 38.3594C917.121 38.3594 894.855 62.0312 894.855 100C894.855 137.969 917.121 161.641 947.824 161.641C978.527 161.641 1000.79 137.969 1000.79 100ZM986.73 100C986.73 131.172 969.621 148.047 947.824 148.047C926.027 148.047 908.917 131.172 908.917 100C908.917 68.8281 926.027 51.9531 947.824 51.9531C969.621 51.9531 986.73 68.8281 986.73 100ZM1025.23 160H1039.76V121.094L1054.76 104.219L1096.48 160H1114.05L1063.66 94.1406L1114.05 40H1095.07L1041.16 99.5312H1039.76V40H1025.23V160ZM1198.49 70H1212.55C1211.91 51.8945 1195.21 38.3594 1172 38.3594C1149.03 38.3594 1130.99 51.7188 1130.99 71.875C1130.99 88.0469 1142.71 97.6563 1161.46 103.047L1176.22 107.266C1188.88 110.781 1200.13 115.234 1200.13 127.187C1200.13 140.312 1187.47 148.984 1170.83 148.984C1156.53 148.984 1143.88 142.656 1142.71 129.062H1127.71C1129.11 148.75 1145.05 162.109 1170.83 162.109C1198.49 162.109 1214.19 146.875 1214.19 127.422C1214.19 104.922 1192.86 97.6563 1180.44 94.375L1168.25 91.0937C1159.35 88.75 1145.05 84.0625 1145.05 71.1719C1145.05 59.6875 1155.6 51.25 1171.53 51.25C1186.07 51.25 1197.08 58.1641 1198.49 70Z" fill="black"/>
<path d="M21.1836 310H93.6641V294.414H39.2891V190H21.1836V310ZM219.874 190H201.768V310H219.874V190ZM333.691 310H379.687C407.578 310 420.175 296.113 420.175 277.715C420.175 259.141 407.168 248.652 395.273 248.008V246.836C406.289 244.023 415.488 236.523 415.488 221.523C415.488 203.77 403.183 190 377.636 190H333.691V310ZM351.796 294.473V256.035H378.574C393.105 256.035 402.187 265.41 402.187 276.836C402.187 286.914 395.332 294.473 377.929 294.473H351.796ZM351.796 241.914V205.41H376.523C390.879 205.41 397.734 212.969 397.734 222.93C397.734 234.531 388.242 241.914 376.054 241.914H351.796ZM529.1 310H547.205V264.59H571.815C572.225 264.59 572.577 264.59 572.987 264.59L597.362 310H617.987L591.385 261.426C606.092 255.977 613.416 243.73 613.416 227.617C613.416 205.527 599.705 190 571.873 190H529.1V310ZM547.205 249.004V205.527H569.94C587.811 205.527 595.194 214.023 595.194 227.617C595.194 241.152 587.811 249.004 570.174 249.004H547.205ZM733.034 310L744.05 278.242H790.925L801.882 310H821.101L777.917 190H756.999L713.816 310H733.034ZM749.323 263.008L767.019 211.797H767.956L785.652 263.008H749.323ZM925.88 310H943.985V264.59H968.595C969.005 264.59 969.356 264.59 969.767 264.59L994.142 310H1014.77L988.165 261.426C1002.87 255.977 1010.2 243.73 1010.2 227.617C1010.2 205.527 996.485 190 968.653 190H925.88V310ZM943.985 249.004V205.527H966.72C984.591 205.527 991.974 214.023 991.974 227.617C991.974 241.152 984.591 249.004 966.954 249.004H943.985ZM1106.07 190L1149.6 262.891V310H1167.65V262.891L1211.19 190H1190.62L1159.27 244.551H1157.98L1126.64 190H1106.07Z" fill="black"/>
</mask>
<g mask="url(#mask0)">
<g filter="url(#filter0_f)">
<rect x="-25" width="1269" height="351" fill="url(#paint0_angular)"/>
</g>
</g>
<defs>
<filter id="filter0_f" x="-125" y="-100" width="1469" height="551" filterUnits="userSpaceOnUse" color-interpolation-filters="sRGB">
<feFlood flood-opacity="0" result="BackgroundImageFix"/>
<feBlend mode="normal" in="SourceGraphic" in2="BackgroundImageFix" result="shape"/>
<feGaussianBlur stdDeviation="50" result="effect1_foregroundBlur"/>
</filter>
<radialGradient id="paint0_angular" cx="0" cy="0" r="1" gradientUnits="userSpaceOnUse" gradientTransform="translate(627.5 100.5) rotate(94.11) scale(251.146 907.989)">
<stop offset="0.0364583" stop-color="#2BF1AA"/>
<stop offset="0.244792" stop-color="#34B6BF"/>
<stop offset="0.401042" stop-color="#49A6FD"/>
<stop offset="0.640625" stop-color="#32D5CB"/>
<stop offset="0.885417" stop-color="#35B6FF"/>
</radialGradient>
</defs>
</svg>